<svg xmlns="http://www.w3.org/2000/svg" viewBox="0 0 32 32">
    <path fill="#FF820A"
        d="M20.093 1.054 16.16 0l-3.315 12.37-2.992-11.168-3.933 1.054 3.233 12.066L1.1 6.269l-2.88 2.88 8.834 8.832-11-2.947L-5 18.967l12.019 3.22a8.144 8.144 0 1 1 15.869-.011l10.922 2.926 1.054-3.933-12.066-3.233 11-2.947-1.054-3.934-12.066 3.234 8.053-8.053-2.88-2.88-8.71 8.711 2.952-11.013Z" />
    <path fill="#FF820A"
        d="M22.877 22.221a8.127 8.127 0 0 1-2.026 3.733l7.913 7.913 2.88-2.88-8.767-8.766ZM20.771 26.037a8.137 8.137 0 0 1-3.639 2.151l2.88 10.746 3.933-1.054-3.174-11.843ZM16.985 28.227a8.157 8.157 0 0 1-2.033.256c-.753 0-1.481-.102-2.173-.293l-2.881 10.756L13.83 40l3.154-11.773ZM12.64 28.15a8.142 8.142 0 0 1-3.574-2.183L1.133 33.9l2.88 2.88 8.628-8.63ZM9 25.897a8.125 8.125 0 0 1-1.976-3.686L-3.934 25.147 2.12 29.08 9 25.897Z" />
</svg>